<svg width="147" height="30" viewBox="0 0 147 30" fill="none" xmlns="http://www.w3.org/2000/svg">
<path d="M136.225 30C134.48 30 132.991 29.8121 131.756 29.4362C130.549 29.0334 129.556 28.5501 128.777 27.9863C128.026 27.4225 127.462 26.8452 127.086 26.2545C126.711 25.637 126.509 25.1135 126.483 24.6839C126.456 24.3885 126.55 24.1469 126.764 23.9589C126.979 23.7441 127.207 23.6367 127.449 23.6367H132.038C132.119 23.6367 132.186 23.6502 132.239 23.677C132.293 23.7039 132.374 23.7576 132.481 23.8381C132.83 24.0261 133.179 24.2677 133.528 24.563C133.877 24.8315 134.279 25.0732 134.735 25.288C135.192 25.5028 135.742 25.6102 136.386 25.6102C137.137 25.6102 137.768 25.4625 138.278 25.1672C138.788 24.8718 139.043 24.4288 139.043 23.8381C139.043 23.4085 138.922 23.0595 138.681 22.791C138.439 22.4957 137.943 22.2137 137.191 21.9452C136.466 21.6768 135.366 21.4083 133.89 21.1398C132.494 20.8176 131.273 20.4014 130.227 19.8913C129.18 19.3543 128.375 18.6696 127.811 17.8373C127.248 16.9781 126.966 15.9445 126.966 14.7362C126.966 13.6623 127.315 12.6286 128.012 11.6352C128.71 10.6417 129.73 9.83626 131.072 9.21873C132.414 8.57435 134.064 8.25216 136.024 8.25216C137.58 8.25216 138.922 8.4401 140.049 8.81599C141.203 9.16503 142.17 9.62147 142.948 10.1853C143.753 10.7491 144.357 11.3264 144.759 11.9171C145.162 12.5078 145.377 13.0447 145.404 13.528C145.43 13.7965 145.35 14.0382 145.162 14.253C144.974 14.4409 144.759 14.5349 144.518 14.5349H140.331C140.224 14.5349 140.116 14.5214 140.009 14.4946C139.902 14.4409 139.808 14.3872 139.727 14.3335C139.405 14.1724 139.083 13.9576 138.761 13.6891C138.439 13.4206 138.063 13.179 137.634 12.9642C137.204 12.7494 136.668 12.642 136.024 12.642C135.299 12.642 134.735 12.8031 134.333 13.1253C133.93 13.4475 133.729 13.8636 133.729 14.3738C133.729 14.7228 133.836 15.045 134.051 15.3403C134.293 15.6357 134.762 15.9042 135.46 16.1458C136.185 16.3875 137.298 16.656 138.801 16.9513C140.653 17.2466 142.129 17.7299 143.23 18.4012C144.33 19.0455 145.108 19.8107 145.565 20.6968C146.021 21.5559 146.249 22.4688 146.249 23.4354C146.249 24.7241 145.86 25.8652 145.081 26.8587C144.33 27.8521 143.203 28.6307 141.7 29.1945C140.197 29.7315 138.372 30 136.225 30Z" fill="black"/>
<path d="M105.35 29.5702C105.044 29.5702 104.793 29.473 104.598 29.2787C104.404 29.0843 104.306 28.8344 104.306 28.529V1.0412C104.306 0.735776 104.404 0.485888 104.598 0.29153C104.793 0.0971715 105.044 -7.62939e-06 105.35 -7.62939e-06H110.191C110.47 -7.62939e-06 110.706 0.0971715 110.901 0.29153C111.123 0.485888 111.235 0.735776 111.235 1.0412V14.9933L117.036 8.62116C117.203 8.42681 117.384 8.26021 117.579 8.12139C117.774 7.98256 118.052 7.91315 118.414 7.91315H124.006C124.257 7.91315 124.466 8.01032 124.633 8.20468C124.827 8.37127 124.925 8.57952 124.925 8.82941C124.925 8.94047 124.897 9.06541 124.841 9.20424C124.786 9.34307 124.702 9.45413 124.591 9.53742L117.078 17.6172L125.634 27.9876C125.857 28.2097 125.968 28.4318 125.968 28.6539C125.968 28.9038 125.871 29.1259 125.676 29.3203C125.509 29.4869 125.286 29.5702 125.008 29.5702H119.29C118.873 29.5702 118.567 29.5008 118.372 29.362C118.177 29.1954 117.996 29.0288 117.829 28.8622L111.235 20.949V28.529C111.235 28.8344 111.123 29.0843 110.901 29.2787C110.706 29.473 110.47 29.5702 110.191 29.5702H105.35Z" fill="black"/>
<path d="M90.4227 30C88.4332 30 86.6723 29.6375 85.1399 28.9126C83.6075 28.1877 82.3843 27.1406 81.4702 25.7713C80.583 24.3751 80.0991 22.7104 80.0185 20.7773C79.9916 20.3477 79.9781 19.8107 79.9781 19.1664C79.9781 18.4951 79.9916 17.9447 80.0185 17.5151C80.0991 15.5551 80.583 13.8905 81.4702 12.5212C82.3574 11.125 83.5672 10.0645 85.0996 9.33955C86.6589 8.61462 88.4332 8.25216 90.4227 8.25216C92.2777 8.25216 93.8639 8.52065 95.1812 9.05763C96.4985 9.56777 97.5739 10.2121 98.4073 10.9908C99.2407 11.7694 99.8591 12.5749 100.262 13.4072C100.692 14.2127 100.921 14.9242 100.948 15.5417C100.975 15.8102 100.881 16.0518 100.666 16.2666C100.451 16.4546 100.209 16.5486 99.9397 16.5486H94.8183C94.5225 16.5486 94.294 16.4814 94.1327 16.3472C93.9714 16.2129 93.8236 16.0116 93.6891 15.7431C93.3665 14.9108 92.9498 14.3201 92.439 13.971C91.9551 13.622 91.3233 13.4475 90.5437 13.4475C89.4683 13.4475 88.6349 13.7965 88.0434 14.4946C87.4789 15.1927 87.1697 16.2666 87.1159 17.7165C87.089 18.7905 87.089 19.7436 87.1159 20.5759C87.1697 22.0526 87.4789 23.1266 88.0434 23.7978C88.6349 24.4691 89.4683 24.8047 90.5437 24.8047C91.3771 24.8047 92.0357 24.6302 92.5197 24.2811C93.0036 23.9321 93.3934 23.3414 93.6891 22.5091C93.8236 22.2406 93.9714 22.0392 94.1327 21.905C94.294 21.7707 94.5225 21.7036 94.8183 21.7036H99.9397C100.209 21.7036 100.451 21.811 100.666 22.0258C100.881 22.2137 100.975 22.442 100.948 22.7104C100.921 23.1669 100.787 23.7039 100.545 24.3214C100.303 24.9121 99.9263 25.543 99.4155 26.2143C98.9047 26.8855 98.2326 27.5165 97.3992 28.1071C96.5926 28.671 95.6113 29.1274 94.4553 29.4764C93.2993 29.8255 91.9551 30 90.4227 30Z" fill="black"/>
<path d="M70.4224 29.5702C70.1155 29.5702 69.8644 29.4768 69.6691 29.2901C69.4738 29.1035 69.3761 28.8634 69.3761 28.5701V9.76799C69.3761 9.47463 69.4738 9.2346 69.6691 9.04791C69.8644 8.86123 70.1155 8.76788 70.4224 8.76788H75.361C75.6401 8.76788 75.8772 8.86123 76.0725 9.04791C76.2957 9.2346 76.4073 9.47463 76.4073 9.76799V28.5701C76.4073 28.8634 76.2957 29.1035 76.0725 29.2901C75.8772 29.4768 75.6401 29.5702 75.361 29.5702H70.4224Z" fill="black"/>
<path d="M52.1037 29.5702C51.8075 29.5702 51.5651 29.4768 51.3765 29.2901C51.188 29.1035 51.0938 28.8634 51.0938 28.5701V9.76799C51.0938 9.5013 51.188 9.27461 51.3765 9.08792C51.5651 8.87456 51.8075 8.76788 52.1037 8.76788H56.7496C57.0459 8.76788 57.2883 8.87456 57.4768 9.08792C57.6653 9.27461 57.7596 9.5013 57.7596 9.76799V11.3682C58.4867 10.5414 59.3486 9.90134 60.3451 9.44796C61.3685 8.99458 62.5132 8.76788 63.779 8.76788H65.5566C65.8259 8.76788 66.0548 8.86123 66.2433 9.04791C66.4588 9.2346 66.5665 9.47463 66.5665 9.76799V13.8884C66.5665 14.1551 66.4588 14.3952 66.2433 14.6085C66.0548 14.7952 65.8259 14.8886 65.5566 14.8886H61.6379C60.5336 14.8886 59.6718 15.1953 59.0523 15.8087C58.4598 16.3954 58.1636 17.2355 58.1636 18.3289V28.5701C58.1636 28.8634 58.0558 29.1035 57.8404 29.2901C57.6518 29.4768 57.4094 29.5702 57.1132 29.5702H52.1037Z" fill="black"/>
<path d="M23.5509 29.625C23.2427 29.625 22.9904 29.5262 22.7943 29.3287C22.5981 29.1312 22.5 28.8773 22.5 28.567V1.05803C22.5 0.747671 22.5981 0.493743 22.7943 0.296244C22.9904 0.0987431 23.2427 -7.62939e-06 23.5509 -7.62939e-06H36.3724C38.7826 -7.62939e-06 40.7584 0.338564 42.2998 1.01571C43.8411 1.69285 44.9762 2.66624 45.7048 3.93588C46.4615 5.17731 46.8398 6.65857 46.8398 8.37964C46.8398 9.39535 46.6437 10.2982 46.2513 11.0882C45.887 11.85 45.4246 12.4848 44.8641 12.9927C44.3316 13.5005 43.8271 13.8673 43.3507 14.093C44.4157 14.6009 45.3545 15.4332 46.1672 16.59C47.008 17.7468 47.4284 19.1011 47.4284 20.6529C47.4284 22.515 47.008 24.1232 46.1672 25.4775C45.3545 26.8036 44.1494 27.8334 42.552 28.567C40.9826 29.2723 39.0488 29.625 36.7508 29.625H23.5509ZM30.0248 24.1232H35.91C37.1151 24.1232 38.0259 23.7705 38.6425 23.0652C39.259 22.3598 39.5673 21.5557 39.5673 20.6529C39.5673 19.6654 39.245 18.833 38.6004 18.1559C37.9839 17.4787 37.0871 17.1402 35.91 17.1402H30.0248V24.1232ZM30.0248 11.7654H35.5317C36.6807 11.7654 37.5355 11.4691 38.096 10.8766C38.6845 10.2841 38.9788 9.52231 38.9788 8.59124C38.9788 7.68839 38.6845 6.95481 38.096 6.39053C37.5355 5.79803 36.6807 5.50178 35.5317 5.50178H30.0248V11.7654Z" fill="black"/>
<rect y="-7.62939e-06" width="8.625" height="8.625" rx="1.40625" fill="black"/>
<rect y="10.5" width="8.625" height="8.625" rx="1.40625" fill="black"/>
<rect x="10.5" y="10.5" width="8.625" height="8.625" rx="1.40625" fill="black"/>
<rect x="10.5" y="21" width="8.625" height="8.625" rx="1.40625" fill="black"/>
<rect x="69.375" y="-7.62939e-06" width="7.03125" height="7.03125" rx="1.40625" fill="black"/>
</svg>
